<svg id="Layer_1" data-name="Layer 1" xmlns="http://www.w3.org/2000/svg" viewBox="0 0 61 61">
  <defs>
    <style>
      .cls-1 {
        fill: #fff;
      }
    </style>
  </defs>
  <title>hotel-icon</title>
  <g>
    <path class="cls-1" d="M30.5,60A29.5,29.5,0,1,1,60,30.5,29.53,29.53,0,0,1,30.5,60Z"/>
    <path d="M30.5,1.5a29,29,0,1,1-29,29,29,29,0,0,1,29-29m0-1a30,30,0,1,0,30,30,30,30,0,0,0-30-30Z"/>
  </g>
  <g>
    <path d="M21.61,26.49H16.78a.69.69,0,0,0-.69.69V34a.69.69,0,0,0,.69.69h4.82a.69.69,0,0,0,.69-.69V27.17A.69.69,0,0,0,21.61,26.49Zm-.68,6.84H17.47V27.86h3.46v5.47Z"/>
    <path d="M33.27,26.49H28.45a.69.69,0,0,0-.69.69V34a.69.69,0,0,0,.69.69h4.82A.69.69,0,0,0,34,34V27.17A.69.69,0,0,0,33.27,26.49Zm-.68,6.84H29.13V27.86h3.46Z"/>
    <path d="M33.27,37.43H28.45a.69.69,0,0,0-.69.69V45a.69.69,0,0,0,.69.69h4.82A.69.69,0,0,0,34,45V38.12A.69.69,0,0,0,33.27,37.43Zm-.68,6.84H29.13V38.8h3.46Z"/>
    <path d="M44.22,26.49H39.39a.69.69,0,0,0-.69.69V34a.69.69,0,0,0,.69.69h4.82A.69.69,0,0,0,44.9,34V27.17A.69.69,0,0,0,44.22,26.49Zm-.68,6.84H40.08V27.86h3.46Z"/>
    <path d="M21.61,37.43H16.78a.69.69,0,0,0-.69.69V45a.69.69,0,0,0,.69.69h4.82a.69.69,0,0,0,.69-.69V38.12A.69.69,0,0,0,21.61,37.43Zm-.68,6.84H17.47V38.8h3.46v5.47Z"/>
    <path d="M44.22,37.43H39.39a.69.69,0,0,0-.69.69V45a.69.69,0,0,0,.69.69h4.82A.69.69,0,0,0,44.9,45V38.12A.69.69,0,0,0,44.22,37.43Zm-.68,6.84H40.08V38.8h3.46Z"/>
    <path d="M48.36,47.73V24.4H49a.69.69,0,0,0,.69-.69V20.26a.69.69,0,0,0-.69-.69h-.68V16.8a.69.69,0,0,0-.69-.69H46.27V8.59a.69.69,0,0,0-.69-.69H15.42a.69.69,0,0,0-.69.69v7.52H13.32a.69.69,0,0,0-.69.69v2.77H12a.69.69,0,0,0-.69.69v3.45a.69.69,0,0,0,.69.69h.68V47.73H9.9V49.1H51.1V47.73H48.36ZM16.1,9.27H44.9v6.84H16.1ZM14,17.48H47v2.09H14ZM47,47.73H14V24.4H47V47.73ZM13.32,23h-.69V20.94H48.36V23h-35Z"/>
    <path d="M29.44,11.62A2.14,2.14,0,0,0,29,10.9a2.11,2.11,0,0,0-.71-.48,2.39,2.39,0,0,0-.92-.17,2.42,2.42,0,0,0-.93.17,2.1,2.1,0,0,0-.72.48,2.14,2.14,0,0,0-.46.72,2.61,2.61,0,0,0,0,1.82,2.14,2.14,0,0,0,.46.72,2.1,2.1,0,0,0,.72.48,2.58,2.58,0,0,0,1.85,0,2.08,2.08,0,0,0,.71-.48,2.16,2.16,0,0,0,.46-.72,2.61,2.61,0,0,0,0-1.82Zm-.79,1.57a1.38,1.38,0,0,1-.28.49,1.21,1.21,0,0,1-.44.31,1.66,1.66,0,0,1-1.18,0,1.22,1.22,0,0,1-.45-.31,1.38,1.38,0,0,1-.28-.49,2.25,2.25,0,0,1,0-1.32,1.4,1.4,0,0,1,.28-.5,1.22,1.22,0,0,1,.45-.31,1.66,1.66,0,0,1,1.18,0,1.2,1.2,0,0,1,.44.31,1.4,1.4,0,0,1,.28.5,2.28,2.28,0,0,1,0,1.32Z"/>
    <polygon points="23.58 10.31 23.58 12.25 21.49 12.25 21.49 10.31 20.68 10.31 20.68 14.82 21.49 14.82 21.49 12.81 23.58 12.81 23.58 14.82 24.39 14.82 24.39 10.31 23.58 10.31"/>
    <polygon points="38.06 14.1 38.06 10.31 37.26 10.31 37.26 14.82 39.83 14.82 39.83 14.1 38.06 14.1"/>
    <polygon points="29.61 10.31 29.61 10.96 30.98 10.96 30.98 14.74 31.79 14.74 31.79 10.96 33.16 10.96 33.16 10.31 29.61 10.31"/>
    <polygon points="36.53 10.96 36.53 10.31 33.72 10.31 33.72 14.82 36.53 14.82 36.53 14.1 34.52 14.1 34.52 12.81 36.05 12.81 36.05 12.17 34.52 12.17 34.52 10.96 36.53 10.96"/>
  </g>
</svg>
