<?xml version="1.0" encoding="utf-8"?>
<!-- Generator: Adobe Illustrator 21.1.0, SVG Export Plug-In . SVG Version: 6.00 Build 0)  -->
<svg version="1.1" id="Capa_1" xmlns="http://www.w3.org/2000/svg" xmlns:xlink="http://www.w3.org/1999/xlink" x="0px" y="0px"
	 viewBox="0 0 527.5 612" style="enable-background:new 0 0 527.5 612;" xml:space="preserve">
<style type="text/css">
	.st0{fill:#FFFFFF;stroke:#000000;stroke-width:6;stroke-linecap:round;stroke-miterlimit:10;}
</style>
<circle cx="163.1" cy="180.6" r="13.2"/>
<circle cx="236.6" cy="180.6" r="13.2"/>
<path d="M521.3,307.1c-3.5-8.9-12-14.9-21.2-14.9c-1.4,0-98.8,9-98.8,9l-4.3,9.4l-57.4,23.9c0,0-73.4-74.1-74.9-75.4
	c16.1-16.3,26.1-38.5,26.4-63.1c11.8-2.8,20.5-13.4,20.5-26c0-12.7-8.7-23.2-20.5-26.1c-0.4-23.8-9.8-46.1-26.7-63
	C253.9,70.4,241,62.6,227,58.3l4.8-50.4l-3.4-1.7C220.2,2.2,211,0,201.9,0s-18.3,2.2-26.4,6.2l-3.4,1.7l4.7,49.2
	c-39.3,10.3-67.5,45.8-68.1,86.8c-11.8,2.8-20.5,13.4-20.5,26.1c0,12.7,8.7,23.2,20.5,26c0.3,24.6,10.3,46.8,26.4,63.1
	c-1.4,1.2-114,113.6-114,113.6c-9.1,9.1-12.5,22.6-8.9,34.8c-13,19.4-15.8,43.8-7.2,64.4l6.5,15.7L5.7,490l4.3,10.3l5.7-2.4
	l6.9,16.6c10.7,25.8,37.1,41.6,64.6,41.6c9.1,0,18.3-1.7,27.1-5.4c5.7-2.4,11-5.4,15.9-9.1V612h139.2V467.8h28.3v-69.1l4.7-1.9
	l29.4,29.4c6.9,6.9,15.9,10.3,24.9,10.3s18-3.4,24.9-10.3c13.7-13.7,13.7-36,0-49.8l-8.9-8.9l37.6-15.6l0.5-0.2
	c6.3-2.1,13.4-1.5,19.5,1.7l11.2,5.9l43.4-28.8c4.3,4.7,10.2,7.5,16.6,7.5c3.1,0,6.2-0.7,9-2C520.9,331,525.7,318.4,521.3,307.1z
	 M196.4,390.5c-2.5-0.9-4.5-2.8-5.5-5.2c-2.1-5,0.7-11,6.3-13.3c5.5-2.3,9.1-7.5,9.1-13.3c0-6-3.8-11-9.6-12.8
	c-14.1-4.3-29.4-3.5-43.3,2.2c-9.3,3.8-17.6,9.8-24.2,17.3c-4.4,5-9.9,8.7-16.1,11v-44.1c0-21.9,8-42.4,22.4-58.2c0,0.6,0,1.3,0,1.9
	c0,35.5,28.8,64.3,64.3,64.3s64.3-28.8,64.3-64.3c0-0.6,0-1.3,0-1.9c0.8,0.9,3.3,3.9,3.3,3.9c12.3,15.3,19.1,34.6,19.1,54.3v24.3
	L206,390.1C203,391.4,199.6,391.6,196.4,390.5L196.4,390.5z M252.6,269.4c0.3,2.2,0.4,4.4,0.4,6.6c0,29.3-23.9,53.2-53.2,53.2
	s-53.2-23.9-53.2-53.2c0-2.2,0.2-4.5,0.4-6.7c14.9,10.6,33.1,16.8,52.7,16.8C219.5,286.2,237.7,280,252.6,269.4z M187.3,410l8,19.2
	l-15,6.2l-8-19.2L187.3,410z M205.6,424.9l-8-19.2l19.1-7.9l8,19.2L205.6,424.9z M235,412.7l-8-19.2l19.1-7.9l8,19.2L235,412.7z
	 M264.4,400.5l-8-19.2l19.1-7.9l8,19.2L264.4,400.5z M293.7,388.3l-8-19.2l19.1-7.9l8,19.2L293.7,388.3z M323.1,376l-8-19.2
	l19.1-7.9l8,19.2L323.1,376z M352.5,363.8l-8-19.2l19.1-7.9l8,19.2L352.5,363.8z M297.7,352v-19.6c0-9.6-1.4-19.1-4.2-28.2l35,35
	L297.7,352z M300.5,170c0,6.4-3.8,11.9-9.3,14.3v-28.6C296.7,158.1,300.5,163.6,300.5,170z M219.9,14.6l-6.2,64.9
	c-7.7-2.3-16-2.3-23.7,0l-6.2-64.9C195.3,10,208.5,10,219.9,14.6z M99.2,170c0-6.4,3.8-11.9,9.3-14.3v28.6
	C103,181.9,99.2,176.4,99.2,170z M119.7,145.5c0-35.9,24.1-67.4,58.1-77.1l2.6,27.9l7.3-3.8c8.7-4.5,19.6-4.5,28.2,0l7.3,3.8
	l2.5-26.6c11.5,3.9,22,10.5,30.6,19.1c15.1,15.1,23.5,35.3,23.5,56.7v49.4c0,44.2-36,80.2-80.2,80.2s-80.2-36-80.2-80.2L119.7,145.5
	L119.7,145.5L119.7,145.5L119.7,145.5z M28.9,380.5l77.6-77.6c-2.9,9.4-4.5,19.3-4.5,29.4v46.4c-0.4,0-3.5,0.1-3.5,0.1l-35.6,35.6
	c-9.4,9.4-24.6,9.3-34,0c-4.8-4.7-5.7-9.1-5.7-9.1C20.2,396.8,22.4,387,28.9,380.5z M110.1,540.4c-29.9,12.4-65.2-1.4-77.2-30.2
	l-17.7-42.6c-6.4-15.3-5.2-33.2,2.9-48.5c0.9,1.1,1.9,2.2,2.9,3.3c13.7,13.7,36,13.7,49.8,0l32.6-32.6c13.1-1,25.5-7.1,34.3-17.1
	c5.5-6.2,12.4-11.2,20.1-14.4c11.4-4.7,24.1-5.4,35.7-1.8c0.4,0.1,1.7,0.5,1.7,2.1c0,0.5-0.2,2.1-2.2,3
	c-11.2,4.7-16.7,17.2-12.3,27.9c1.4,3.3,3.7,6.2,6.6,8.4l-29.4,12.2l16.6,39.8l14.6-6.1c-0.3,3.2,0.1,6.4,1.4,9.5
	c4.4,10.5,17.1,15.2,28.3,10.6c4.9-2.1,9,0.3,10.4,3.6c1.1,2.7,0.3,5.6-2.2,7.9c-4.7,4.3-10.1,7.8-16.2,10.3
	c-7.8,3.2-16.2,4.7-24.3,4.2c-18.5-1.2-36.7,8.5-46.3,24.6C133.3,526,122.6,535.1,110.1,540.4z M258.3,579.9
	c-6.8-6.7-16.1-10.8-26.4-10.8c-10.3,0-19.6,4.1-26.4,10.8V523h52.9L258.3,579.9L258.3,579.9z M257.7,600.9H206
	c2.6-12.3,13.2-20.7,25.8-20.7C244.5,580.2,255.2,588.6,257.7,600.9z M194.3,579.9c-6.8-6.7-16.1-10.8-26.4-10.8
	c-10.3,0-19.6,4.1-26.4,10.8v-48.4c2.4-2.6,4.5-5.5,6.5-8.4h46.4L194.3,579.9L194.3,579.9z M193.7,600.9H142
	c2.6-12.3,13.2-20.7,25.8-20.7C180.5,580.2,191.1,588.6,193.7,600.9z M156.4,511.9c7.8-7.3,18.4-11.4,29.2-10.7
	c2.9,0.2,5.8,0.1,8.7-0.1v10.8L156.4,511.9L156.4,511.9z M258.3,511.9h-52.9v-12.6c3.2-0.8,6.3-1.8,9.4-3.1
	c7.3-3,13.8-7.2,19.5-12.4c4.8-4.4,6.9-10.3,6.1-16h17.9V511.9L258.3,511.9z M286.6,456.6h-52.2c-5.6-4.9-13.7-5.6-20.1-2.9
	c-5.6,2.3-11.7,0.3-13.7-4.6c-1.7-4.1,0.1-9.1,4.2-11.8l81.8-34V456.6L286.6,456.6z M373.7,384.3c9.4,9.4,9.4,24.6,0,34
	s-24.6,9.4-34,0l-26.2-26.2l48-20L373.7,384.3z M381.8,351.6l-8-19.2l19.8-8.2l8,19.2L381.8,351.6z M505.7,325.8
	c-1.4,0.6-2.8,1-4.3,1c-4.2,0-8.2-2.6-10.2-6.5l-2.9-5.5l-47.6,31.6l-5.3-2.8c-5.3-2.8-11.1-4.2-16.9-4.2c-2,0-4,0.2-6,0.5
	l-7.3-20.1l3.6-7.9c88.1-7.9,88.9-8.1,89.3-8.1c0.7-0.1,1.4-0.2,2.1-0.2c4.7,0,9,3.1,10.8,7.8C513.2,317,510.9,323.4,505.7,325.8z"
	/>
<path d="M150.2,457.3l-10.3,4.3l-15.6-37.5l10.3-4.3L150.2,457.3z M99,434.6l15.6,37.5l10.3-4.3l-15.6-37.5L99,434.6z"/>
<path d="M45.2,451l20.3,48.8L95,487.5l-20.3-48.8L45.2,451z M71.5,485.2L59.8,457l9-3.7l11.7,28.2L71.5,485.2z"/>
<path id="#smile" class="st0" d="M163.1,222c15.9,0,18.9,37.7,73.5,0"/>
</svg>
