<svg id="Layer_1" data-name="Layer 1" xmlns="http://www.w3.org/2000/svg" viewBox="0 0 61 61">
  <defs>
    <style>
      .cls-1 {
        fill: #fff;
      }
    </style>
  </defs>
  <title>ticket-icon</title>
  <g>
    <path class="cls-1" d="M30.5,60A29.5,29.5,0,1,1,60,30.5,29.53,29.53,0,0,1,30.5,60Z"/>
    <path d="M30.5,1.5a29,29,0,1,1-29,29,29,29,0,0,1,29-29m0-1a30,30,0,1,0,30,30,30,30,0,0,0-30-30Z"/>
  </g>
  <g>
    <path d="M55.24,34.6,32.44,11.8h0l-6-6a.88.88,0,0,0-1.25,0L21,10a.88.88,0,0,0-.23.86,8,8,0,0,1-9.91,9.91A.88.88,0,0,0,10,21l-4.2,4.2a.88.88,0,0,0,0,1.25l6,6h0l22.8,22.8a.88.88,0,0,0,1.25,0L40,51a.88.88,0,0,0,.22-.86,8,8,0,0,1,9.91-9.91A.88.88,0,0,0,51,40l4.2-4.2A.88.88,0,0,0,55.24,34.6Zm-5.09,3.84A9.82,9.82,0,0,0,48,38.2a9.78,9.78,0,0,0-9.54,11.95l-3.22,3.22L13.67,31.81,14.5,31a.88.88,0,1,0-1.25-1.25l-.83.83L7.63,25.77l3.22-3.22A9.82,9.82,0,0,0,13,22.8a9.78,9.78,0,0,0,9.54-11.95l3.22-3.22,4.79,4.79-.83.83A.88.88,0,1,0,31,14.5l.83-.83L53.37,35.23Z"/>
    <path d="M46.22,33,31.67,18.44a.88.88,0,0,0-1.25,0l-12,12a.88.88,0,0,0,0,1.25L33,46.22a.88.88,0,0,0,1.25,0l12-12A.88.88,0,0,0,46.22,33ZM33.62,44.35,20.32,31,31,20.32l13.3,13.3Z"/>
    <path d="M38.46,32.49l-2.69-1.9,0-3.3a.88.88,0,0,0-1.41-.72l-2.64,2-3.12-1.06a.88.88,0,0,0-1.12,1.12l1.06,3.12-2,2.64a.88.88,0,0,0,.72,1.41l3.3,0,1.9,2.69a.88.88,0,0,0,.72.37h.14a.88.88,0,0,0,.7-.61l1-3.15,3.15-1a.88.88,0,0,0,.25-1.56Zm-5,1.63L32.92,36l-1.14-1.61a.88.88,0,0,0-.72-.37h0l-2,0,1.18-1.58a.88.88,0,0,0,.13-.81l-.63-1.87,1.87.63a.88.88,0,0,0,.81-.13L34,29.11l0,2a.88.88,0,0,0,.37.73L36,32.95l-1.88.59A.88.88,0,0,0,33.51,34.12Z"/>
    <path d="M27.69,16.55a.88.88,0,0,0-1.25,0l-3.3,3.3a.88.88,0,1,0,1.25,1.25l3.3-3.3A.88.88,0,0,0,27.69,16.55Z"/>
    <path d="M21.09,23.14a.88.88,0,0,0-1.25,0l-3.3,3.3a.88.88,0,1,0,1.25,1.25l3.3-3.3A.88.88,0,0,0,21.09,23.14Z"/>
  </g>
</svg>
